# xmcd
#
# Track frame offsets:
#	150
#	12832
#	25120
#	35654
#	46883
#	61409
#	69625
#	81902
#	94279
#	104983
#	117404
#	130305
#	141126
#	152733
#	164630
#	176800
#	189234
#	201445
#	215962
#	228297
#	242095
#	253306
#	265609
#	278187
#	291219
#	302871
#
# Disc length: 4204 seconds
#
# Revision: 1
# Processed by: cddbd v1.5.1PL2 Copyright (c) Steve Scherf et al.
# Submitted via: EasyCDDAExtractor 9.0.0.1
#
DISCID=95106a1a
DTITLE=Various Artist - Cool, Cool Blues, The Classic Sides (1951-54) - Disc 
DTITLE=D (Jackson, Houston)
DYEAR=2006
DGENRE=Blues
TTITLE0=Sonny Boy Williamson - She's Crazy (Take 1)
TTITLE1=Sonny Boy Williamson - 309
TTITLE2=Sonny Boy Williamson - Sonny's Rhythm (Take 1)
TTITLE3=Sonny Boy Williamson - City Of New Orleans
TTITLE4=Sonny Boy Williamson - Keep It To Yourself (Take 1)
TTITLE5=Sonny Boy Williamson - Going In Your Direction (Take 4)
TTITLE6=Sonny Boy Williamson - Clowning With The World (Take 1)
TTITLE7=Sonny Boy Williamson - I Ain't Beggin' Nobody (Take 2)
TTITLE8=Sonny Boy Williamson - Shuckin' Mama
TTITLE9=Sonny Boy Williamson - From The Bottom (Take 1)
TTITLE10=Sonny Boy Williamson - She's Crazy (Take 2)
TTITLE11=Sonny Boy Williamson - Sonny's Rhythm (Take 2)
TTITLE12=Sonny Boy Williamson - Keep It To Yourself (Take 2)
TTITLE13=Sonny Boy Williamson - Going In You Direction (Take 5)
TTITLE14=Sonny Boy Williamson - From The Bottom (Take 3)
TTITLE15=Sonny Boy Williamson - I Ain't Beggin' Nobody (Take 3)
TTITLE16=Sonny Boy Williamson - From The Bottom (Take 6)
TTITLE17=Arthur 'Big Boy' Crudup - Gotta Find My Baby (Alt. Take)
TTITLE18=Arthur 'Big Boy' Crudup - Gotta Find My Baby (Alt. Take)
TTITLE19=Willie Love - Worried Blues (Alt. Take)
TTITLE20=Willie Love - Lonesome World Blues
TTITLE21=Willie Love - Wonderful Baby
TTITLE22=Willie Love - Wille Mae
TTITLE23=Willie Love - Worried Blues (Take 2)
TTITLE24=Willie Love - Shout Brother, Shout (Alt. Take)
TTITLE25=Willie Love - Willie Mae (Alt. Take)
EXTD=YEAR: 2006
EXTT0=
EXTT1=
EXTT2=
EXTT3=
EXTT4=
EXTT5=
EXTT6=
EXTT7=
EXTT8=
EXTT9=
EXTT10=
EXTT11=
EXTT12=
EXTT13=
EXTT14=
EXTT15=
EXTT16=
EXTT17=
EXTT18=
EXTT19=
EXTT20=
EXTT21=
EXTT22=
EXTT23=
EXTT24=
EXTT25=
PLAYORDER=
